<svg width="15" height="11" viewBox="0 0 15 11" fill="none" xmlns="http://www.w3.org/2000/svg">
<path d="M7.33337 8.375C7.77087 8.375 8.23572 8.23828 8.61853 7.9375L14.3334 3.50781V9.6875C14.3334 10.4258 13.7318 11 13.0209 11H1.64587C0.907593 11 0.333374 10.4258 0.333374 9.6875V3.50781L6.02087 7.9375C6.40369 8.23828 6.86853 8.375 7.33337 8.375ZM0.770874 2.74219C0.497437 2.52344 0.333374 2.16797 0.333374 1.8125C0.333374 1.10156 0.907593 0.5 1.64587 0.5H13.0209C13.7318 0.5 14.3334 1.10156 14.3334 1.8125C14.3334 2.16797 14.142 2.52344 13.8685 2.74219L8.07166 7.25391C7.63416 7.58203 7.00525 7.58203 6.56775 7.25391L0.770874 2.74219Z" fill="#04297A"/>
</svg>
