<svg width="56" height="57" viewBox="0 0 56 57" fill="none" xmlns="http://www.w3.org/2000/svg">
<g clip-path="url(#clip0_54_245)">
<circle cx="28" cy="28.5" r="28" fill="black"/>
<path d="M21.0028 22.5C19.8401 22.5 19.0009 21.1356 19.0009 20.22C18.9847 19.7767 19.1865 19.3464 19.562 19.0238C19.9375 18.7012 20.4558 18.5128 21.0028 18.5C22.1376 18.529 23.03 19.2959 22.9992 20.2156C22.9992 21.1311 22.1601 22.5 21.0028 22.5Z" fill="white"/>
<path d="M34.9973 22.5C33.8411 22.5 33.0028 21.1311 33.0028 20.2126C32.9641 19.6117 33.336 19.0424 33.9699 18.7325C34.6038 18.4225 35.3962 18.4225 36.0301 18.7325C36.664 19.0424 37.0359 19.6117 36.9972 20.2126C36.9972 21.1267 36.1589 22.5 34.9973 22.5Z" fill="white"/>
<path d="M27.657 29.6438L24.9159 25.6318C24.0234 24.3119 22.5639 23.5174 20.9992 23.5C19.4328 23.5158 17.971 24.3104 17.0775 25.6318L14.3364 29.6438C14.0314 30.0707 13.9269 30.6146 14.0513 31.1284C14.212 31.8163 14.8081 32.3035 15.4969 32.3099C15.9963 32.3027 16.4594 32.0408 16.7324 31.6113L18.068 29.5565V37.9863C18.0675 38.2584 18.2737 38.4837 18.5382 38.5H20.0388C20.3013 38.4811 20.5046 38.2565 20.504 37.9863V32.6079C20.4855 32.4244 20.5704 32.2462 20.7227 32.1485C20.8751 32.0508 21.0683 32.0508 21.2207 32.1485C21.373 32.2462 21.4579 32.4244 21.4394 32.6079V37.9863C21.4387 38.2565 21.6421 38.4811 21.9046 38.5H23.4302C23.6927 38.4811 23.8961 38.2565 23.8954 37.9863V29.5462L25.231 31.601C25.5084 32.0451 25.9878 32.3126 26.5015 32.3099C27.1937 32.3053 27.793 31.8151 27.9521 31.1233C28.0721 30.6096 27.964 30.0677 27.657 29.6438Z" fill="white"/>
<path d="M41.6607 29.6488L38.9188 25.6391C38.0399 24.3017 36.5706 23.5 34.9986 23.5C33.4265 23.5 31.9573 24.3017 31.0784 25.6391L28.3365 29.6386C28.0314 30.0652 27.9269 30.6088 28.0513 31.1223C28.2076 31.8121 28.8022 32.3035 29.4923 32.3134C29.9918 32.3062 30.4551 32.0445 30.7281 31.6152L32.0641 29.5616V37.9866C32.0634 38.2567 32.2668 38.4811 32.5294 38.5H34.0304C34.293 38.4811 34.4964 38.2567 34.4957 37.9866V32.8936C34.4957 32.4675 34.7059 32.1235 34.9611 32.1235C35.2162 32.1235 35.4314 32.4675 35.4314 32.8936V37.9866C35.4307 38.2567 35.6341 38.4811 35.8967 38.5H37.3977C37.6623 38.4837 37.8685 38.2585 37.8681 37.9866V29.5513L39.204 31.6049C39.4862 32.0566 39.9771 32.325 40.4999 32.3134C41.1922 32.3088 41.7917 31.8188 41.9509 31.1275C42.0723 30.6148 41.966 30.0733 41.6607 29.6488Z" fill="white"/>
</g>
<defs>
<clipPath id="clip0_54_245">
<rect width="56" height="56" fill="white" transform="translate(0 0.5)"/>
</clipPath>
</defs>
</svg>
