<svg width="32" height="32" viewBox="0 0 32 32" fill="none" xmlns="http://www.w3.org/2000/svg">
<rect width="32" height="32" rx="10" fill="#04297A"/>
<path d="M15.6875 13.2051C17.2871 13.2051 18.6074 14.5254 18.6074 16.125C18.6074 17.75 17.2871 19.0449 15.6875 19.0449C14.0625 19.0449 12.7676 17.75 12.7676 16.125C12.7676 14.5254 14.0625 13.2051 15.6875 13.2051ZM15.6875 18.0293C16.7285 18.0293 17.5664 17.1914 17.5664 16.125C17.5664 15.084 16.7285 14.2461 15.6875 14.2461C14.6211 14.2461 13.7832 15.084 13.7832 16.125C13.7832 17.1914 14.6465 18.0293 15.6875 18.0293ZM19.3945 13.1035C19.3945 12.7227 19.0898 12.418 18.709 12.418C18.3281 12.418 18.0234 12.7227 18.0234 13.1035C18.0234 13.4844 18.3281 13.7891 18.709 13.7891C19.0898 13.7891 19.3945 13.4844 19.3945 13.1035ZM21.3242 13.7891C21.375 14.7285 21.375 17.5469 21.3242 18.4863C21.2734 19.4004 21.0703 20.1875 20.4102 20.873C19.75 21.5332 18.9375 21.7363 18.0234 21.7871C17.084 21.8379 14.2656 21.8379 13.3262 21.7871C12.4121 21.7363 11.625 21.5332 10.9395 20.873C10.2793 20.1875 10.0762 19.4004 10.0254 18.4863C9.97461 17.5469 9.97461 14.7285 10.0254 13.7891C10.0762 12.875 10.2793 12.0625 10.9395 11.4023C11.625 10.7422 12.4121 10.5391 13.3262 10.4883C14.2656 10.4375 17.084 10.4375 18.0234 10.4883C18.9375 10.5391 19.75 10.7422 20.4102 11.4023C21.0703 12.0625 21.2734 12.875 21.3242 13.7891ZM20.1055 19.4766C20.4102 18.7402 20.334 16.9629 20.334 16.125C20.334 15.3125 20.4102 13.5352 20.1055 12.7734C19.9023 12.291 19.5215 11.8848 19.0391 11.707C18.2773 11.4023 16.5 11.4785 15.6875 11.4785C14.8496 11.4785 13.0723 11.4023 12.3359 11.707C11.8281 11.9102 11.4473 12.291 11.2441 12.7734C10.9395 13.5352 11.0156 15.3125 11.0156 16.125C11.0156 16.9629 10.9395 18.7402 11.2441 19.4766C11.4473 19.9844 11.8281 20.3652 12.3359 20.5684C13.0723 20.873 14.8496 20.7969 15.6875 20.7969C16.5 20.7969 18.2773 20.873 19.0391 20.5684C19.5215 20.3652 19.9277 19.9844 20.1055 19.4766Z" fill="white"/>
</svg>
