<svg width="32" height="32" viewBox="0 0 32 32" fill="none" xmlns="http://www.w3.org/2000/svg">
<rect width="32" height="32" rx="9" fill="#04297A"/>
<g clip-path="url(#clip0_363_75)">
<path d="M12.3583 23H9.24777V12.9855H12.3583V23ZM10.8013 11.6194C9.80692 11.6194 9 10.7958 9 9.80134C9 9.32359 9.18978 8.86542 9.5276 8.5276C9.86542 8.18978 10.3236 8 10.8013 8C11.2791 8 11.7373 8.18978 12.0751 8.5276C12.4129 8.86542 12.6027 9.32359 12.6027 9.80134C12.6027 10.7958 11.7958 11.6194 10.8013 11.6194ZM23.9967 23H20.8929V18.125C20.8929 16.9632 20.8694 15.4732 19.2757 15.4732C17.6585 15.4732 17.4107 16.7355 17.4107 18.0413V23H14.3036V12.9855H17.2868V14.3516H17.3304C17.7455 13.5647 18.76 12.7344 20.2734 12.7344C23.4208 12.7344 24 14.8069 24 17.4989V23H23.9967Z" fill="white"/>
</g>
<defs>
<clipPath id="clip0_363_75">
<rect width="15" height="15" fill="white" transform="translate(9 8)"/>
</clipPath>
</defs>
</svg>
