<svg width="11" height="15" viewBox="0 0 11 15" fill="none" xmlns="http://www.w3.org/2000/svg">
<path d="M4.67712 14.4219C3.25525 12.6445 0.083374 8.40625 0.083374 6C0.083374 3.10156 2.40759 0.75 5.33337 0.75C8.23181 0.75 10.5834 3.10156 10.5834 6C10.5834 8.40625 7.38416 12.6445 5.96228 14.4219C5.63416 14.832 5.00525 14.832 4.67712 14.4219ZM5.33337 7.75C6.29041 7.75 7.08337 6.98438 7.08337 6C7.08337 5.04297 6.29041 4.25 5.33337 4.25C4.349 4.25 3.58337 5.04297 3.58337 6C3.58337 6.98438 4.349 7.75 5.33337 7.75Z" fill="#04297A"/>
</svg>
