<svg width="15" height="15" viewBox="0 0 15 15" fill="none" xmlns="http://www.w3.org/2000/svg">
<path d="M14.306 11.332L13.6498 14.0938C13.5677 14.5039 13.2396 14.7773 12.8295 14.7773C5.93884 14.75 0.333374 9.14453 0.333374 2.25391C0.333374 1.84375 0.579468 1.51562 0.989624 1.43359L3.75134 0.777344C4.13416 0.695312 4.54431 0.914062 4.70837 1.26953L5.99353 4.25C6.13025 4.60547 6.04822 5.01562 5.74744 5.23438L4.27087 6.4375C5.20056 8.32422 6.73181 9.85547 8.64587 10.7852L9.849 9.30859C10.0677 9.03516 10.4779 8.92578 10.8334 9.0625L13.8138 10.3477C14.1693 10.5391 14.3881 10.9492 14.306 11.332Z" fill="#04297A"/>
</svg>
